- 
http://www.Speed.Cd      fast  and The Hottest Private Tracker on the net

Please Seed back to make the speed Faster!!!

------------------nfo--------------------------
-
30 Minutes Or Less 2011 R5 XviD READNFO - MiSTERE

Audio: ILLUMINATI
Video: Uspet.za.30.minut.2011.D.DVD5 

Video
ID                               : 0
Format                           : MPEG-4 Visual
Format profile                   : Advanced Simple@L5
Format settings, BVOP            : 2
Format settings, QPel            : No
Format settings, GMC             : No warppoints
Format settings, Matrix          : Default (H.263)
Muxing mode                      : Packed bitstream
Codec ID                         : XVID
Codec ID/Hint                    : XviD
Duration                         : 1h 19mn
Bit rate                         : 2 323 Kbps
Width                            : 720 pixels
Height                           : 304 pixels
Display aspect ratio             : 2.35:1
Frame rate                       : 25.000 fps
Color space                      : YUV
Chroma subsampling               : 4:2:0
Bit depth                        : 8 bits
Scan type                        : Progressive
Compression mode                 : Lossy
Bits/(Pixel*Frame)               : 0.425
Stream size                      : 1.29 GiB (94%)
Writing library                  : XviD 64

Audio
ID                               : 1
Format                           : MPEG Audio
Format version                   : Version 1
Format profile                   : Layer 3
Mode                             : Joint stereo
Mode extension                   : MS Stereo
Codec ID                         : 55
Codec ID/Hint                    : MP3
Duration                         : 1h 19mn
Bit rate mode                    : Constant
Bit rate                         : 128 Kbps
Channel(s)                       : 2 channels
Sampling rate                    : 44.1 KHz
Compression mode                 : Lossy
Stream size                      : 73.0 MiB (5%)
Alignment                        : Split accross interleaves
Interleave, duration             : 40 ms (1.00 video frame)
 
Notes:
Cropped Resized and sharpened video 
then adjusted the RGB abit
Audio is FULL cam
NOTHING missing or cut out
 
http://screenshotcomparison.com/comparison/89983/

[IMG]http://i.imgur.com/P2Qm5.png[/IMG]
[IMG]http://i.imgur.com/rqiJ8.png[/IMG]
[IMG]http://i.imgur.com/ElSn5.png[/IMG]
[IMG]http://i.imgur.com/EH5l0.png[/IMG]
[IMG]http://i.imgur.com/nCujc.png[/IMG]